<svg width="1024" height="1024" viewBox="0 0 1024 1024" fill="none" xmlns="http://www.w3.org/2000/svg">
  <g clip-path="url(#clip0_11067_2485)">
    <path
      fill-rule="evenodd"
      clip-rule="evenodd"
      d="M337.324 512.003C337.324 415.526 415.536 337.316 512.014 337.316C608.493 337.316 686.704 415.526 686.704 512.003C686.704 608.48 608.493 686.691 512.014 686.691C415.536 686.691 337.324 608.48 337.324 512.003ZM512.014 305.555C397.994 305.555 305.562 397.985 305.562 512.003C305.562 626.022 397.994 718.452 512.014 718.452C626.034 718.452 718.466 626.022 718.466 512.003C718.466 397.985 626.034 305.555 512.014 305.555ZM458.548 409.771C458.548 408.055 459.943 406.664 461.664 406.664H491.777C493.498 406.664 494.892 408.055 494.892 409.771V433.587C494.892 435.303 493.498 436.694 491.777 436.694H461.664C459.943 436.694 458.548 435.303 458.548 433.587V409.771ZM520.852 409.771C520.852 408.055 522.248 406.664 523.969 406.664H554.081C555.802 406.664 557.198 408.055 557.198 409.771V433.587C557.198 435.303 555.802 436.694 554.081 436.694H523.969C522.248 436.694 520.852 435.303 520.852 433.587V409.771ZM458.548 626.016V488.191H435.438V513.321H399.359V488.191C399.359 468.112 415.512 451.834 435.438 451.834H581.345V431.516H617.424V451.834C617.424 471.914 601.271 488.191 581.345 488.191H557.198V612.065L520.852 626.016V488.191H494.892V612.065L458.548 626.016Z"
      fill="#703D92"
    />
    <path
      fill-rule="evenodd"
      clip-rule="evenodd"
      d="M844.428 512.002C844.428 421.956 917.425 348.96 1007.47 348.96C1097.52 348.96 1170.51 421.956 1170.51 512.002C1170.51 602.047 1097.52 675.043 1007.47 675.043C917.425 675.043 844.428 602.047 844.428 512.002ZM1007.47 319.316C901.053 319.316 814.783 405.585 814.783 512.002C814.783 618.419 901.053 704.687 1007.47 704.687C1113.89 704.687 1200.16 618.419 1200.16 512.002C1200.16 405.585 1113.89 319.316 1007.47 319.316ZM966.57 416.587C966.57 414.986 967.872 413.688 969.478 413.688H997.584C999.19 413.688 1000.49 414.986 1000.49 416.587V438.816C1000.49 440.417 999.19 441.715 997.584 441.715H969.478C967.872 441.715 966.57 440.417 966.57 438.816V416.587ZM1024.72 416.587C1024.72 414.986 1026.02 413.688 1027.63 413.688H1055.73C1057.34 413.688 1058.64 414.986 1058.64 416.587V438.816C1058.64 440.417 1057.34 441.715 1055.73 441.715H1027.63C1026.02 441.715 1024.72 440.417 1024.72 438.816V416.587ZM966.57 618.416V489.78H945.001H911.327C911.327 471.039 926.403 455.846 945.001 455.846H1081.18V436.883H1114.85V455.846C1114.85 474.587 1099.78 489.78 1081.18 489.78H1058.64V605.394L1024.72 618.416V489.78H1000.49V605.394L966.57 618.416Z"
      fill="#703D92"
    />
    <path
      fill-rule="evenodd"
      clip-rule="evenodd"
      d="M-158.174 511.997C-158.174 415.52 -79.962 337.31 16.5166 337.31C112.995 337.31 191.206 415.52 191.206 511.997C191.206 608.475 112.995 686.685 16.5166 686.685C-79.962 686.685 -158.174 608.475 -158.174 511.997ZM16.5166 305.549C-97.5035 305.549 -189.936 397.979 -189.936 511.997C-189.936 626.016 -97.5035 718.446 16.5166 718.446C130.536 718.446 222.968 626.016 222.968 511.997C222.968 397.979 130.536 305.549 16.5166 305.549ZM-36.9361 409.762C-36.9361 408.047 -35.5412 406.656 -33.8208 406.656H-3.70709C-1.9866 406.656 -0.591888 408.047 -0.591888 409.762V433.579C-0.591888 435.295 -1.9866 436.685 -3.70709 436.685H-33.8208C-35.5412 436.685 -36.9361 435.295 -36.9361 433.579V409.762ZM25.3681 409.762C25.3681 408.047 26.7629 406.656 28.4834 406.656H58.597C60.3175 406.656 61.7122 408.047 61.7122 409.762V433.579C61.7122 435.295 60.3175 436.685 58.597 436.685H28.4834C26.7629 436.685 25.3681 435.295 25.3681 433.579V409.762ZM-36.9361 626.008V488.183H-60.0461V513.313H-96.1249V488.183C-96.1249 468.103 -79.9719 451.825 -60.0461 451.825H85.8608V431.508H121.939V451.825C121.939 471.905 105.786 488.183 85.8608 488.183H61.7122V612.056L25.3681 626.008V488.183H-0.591888V612.056L-36.9361 626.008Z"
      fill="#703D92"
    />
    <path
      d="M150.598 511.992H361.421"
      stroke="white"
      stroke-width="90.3529"
      stroke-linecap="round"
      stroke-linejoin="round"
    />
    <path
      d="M662.598 511.992H873.421"
      stroke="white"
      stroke-width="90.3529"
      stroke-linecap="round"
      stroke-linejoin="round"
    />
    <path
      d="M150.598 511.992H361.421"
      stroke="#703D92"
      stroke-width="50"
      stroke-linecap="round"
      stroke-linejoin="round"
    />
    <path
      d="M662.598 511.992H873.421"
      stroke="#703D92"
      stroke-width="50"
      stroke-linecap="round"
      stroke-linejoin="round"
    />
  </g>
  <defs>
    <clipPath id="clip0_11067_2485">
      <rect width="1024" height="1024" fill="white" />
    </clipPath>
  </defs>
</svg>
