<svg width="128" height="128" viewBox="0 0 128 128" fill="none" xmlns="http://www.w3.org/2000/svg">
  <path
    fill-rule="evenodd"
    clip-rule="evenodd"
    d="M62.4858 0C73.8608 7.26939 94.2663 30.3111 89.5999 66.318C89.2886 68.7199 91.6204 70.3027 93.3157 68.5731C96.5027 65.3216 100.035 60.0535 101.704 52.5128C112.597 73.2991 114.237 128 65.7539 128C47.7792 128 20 114.872 20 85.3333C20 79.9798 20.6268 75.1488 21.6549 70.8448C24.2549 59.9608 32.5183 52.5846 40.9234 45.0821C47.2458 39.4386 53.6484 33.7236 57.7807 26.3903C63.5404 16.1689 63.7701 5.80378 62.4858 0ZM55.6961 69.6396H72.1273C80.3172 69.6396 84.425 73.6474 84.425 81.6379V91.6573C84.425 92.3086 84.3993 92.9348 84.3223 93.536C83.7318 100.299 79.6497 103.656 72.1273 103.656H71.1004C70.4585 103.656 69.8423 103.956 69.4572 104.457L66.3764 108.465C65.0157 110.243 62.8078 110.243 61.447 108.465L58.3662 104.457C58.0324 104.031 57.2879 103.656 56.7231 103.656H55.6961C47.5062 103.656 43.3984 101.677 43.3984 91.6573V81.6379C43.3984 74.2987 46.8644 70.316 53.7706 69.7398C54.3868 69.6647 55.0286 69.6396 55.6961 69.6396ZM52.3842 87.1736C52.3842 88.5513 53.5139 89.6785 54.9516 89.6785C56.3637 89.6785 57.519 88.5513 57.519 87.1736C57.519 85.796 56.3637 84.6688 54.9516 84.6688C53.5395 84.6688 52.3842 85.796 52.3842 87.1736ZM61.3443 87.1736C61.3443 88.5513 62.474 89.6785 63.9117 89.6785C65.3494 89.6785 66.4791 88.5513 66.4791 87.1736C66.4791 85.796 65.3238 84.6688 63.9117 84.6688C62.4997 84.6688 61.3443 85.796 61.3443 87.1736ZM70.3301 87.1736C70.3301 88.5513 71.4598 89.6785 72.8975 89.6785C74.3096 89.6785 75.4649 88.5513 75.4649 87.1736C75.4649 85.796 74.3096 84.6688 72.8975 84.6688C71.4855 84.6688 70.3301 85.796 70.3301 87.1736Z"
    fill="#703D92"
  />
</svg>
