<svg width="128" height="128" viewBox="0 0 128 128" fill="none" xmlns="http://www.w3.org/2000/svg">
  <path
    d="M110.214 63.5281V35.4822C110.214 31.9022 107.308 29 103.724 29H11.2828C7.69857 29 4.79297 31.9022 4.79297 35.4822V93.3808C4.79297 96.9608 7.69857 99.863 11.2828 99.863H74.809"
    stroke="#703D92"
    stroke-width="7.75793"
    stroke-linecap="round"
    stroke-linejoin="round"
  />
  <path
    d="M73.7435 60.9375H57.6959C56.893 60.9375 56.2422 61.5876 56.2422 62.3895V65.6695C56.2422 66.4714 56.893 67.1215 57.6959 67.1215H73.7435C74.5464 67.1215 75.1972 66.4714 75.1972 65.6695V62.3895C75.1972 61.5876 74.5464 60.9375 73.7435 60.9375Z"
    fill="#703D92"
  />
  <path
    d="M66.8986 77.2939H57.6959C56.893 77.2939 56.2422 77.944 56.2422 78.7459V82.0259C56.2422 82.8278 56.893 83.4779 57.6959 83.4779H66.8986C67.7014 83.4779 68.3523 82.8278 68.3523 82.0259V78.7459C68.3523 77.944 67.7014 77.2939 66.8986 77.2939Z"
    fill="#703D92"
  />
  <path
    d="M98.043 44.6475H57.6959C56.893 44.6475 56.2422 45.2975 56.2422 46.0995V49.3794C56.2422 50.1814 56.893 50.8314 57.6959 50.8314H98.043C98.8458 50.8314 99.4967 50.1814 99.4967 49.3794V46.0995C99.4967 45.2975 98.8458 44.6475 98.043 44.6475Z"
    fill="#703D92"
  />
  <path
    d="M31.4471 62.5001C37.7195 62.5001 42.8043 57.4213 42.8043 51.1563C42.8043 44.8913 37.7195 39.8125 31.4471 39.8125C25.1746 39.8125 20.0898 44.8913 20.0898 51.1563C20.0898 57.4213 25.1746 62.5001 31.4471 62.5001Z"
    fill="#703D92"
  />
  <path
    d="M31.4338 67.6992C40.0004 67.6992 46.9575 74.6481 46.9575 83.2045V87.8976C46.9575 88.5329 46.4383 89.0515 45.8023 89.0515H17.0653C16.4293 89.0515 15.9102 88.5329 15.9102 87.8976V83.2045C15.9102 74.6481 22.8673 67.6992 31.4338 67.6992Z"
    fill="#703D92"
  />
  <path
    d="M91.7617 75.1151C91.7617 74.8935 91.936 74.7037 92.1578 74.7037H96.1026C96.3244 74.672 96.5145 74.8619 96.5145 75.0992L96.562 78.2799C96.562 78.5014 96.3878 78.6913 96.166 78.6913H92.2212C91.9994 78.7229 91.8092 78.533 91.8092 78.2957L91.7617 75.1151Z"
    fill="#703D92"
  />
  <path
    d="M99.918 75.0682C99.918 74.8467 100.092 74.6568 100.314 74.6568H104.259C104.481 74.6251 104.671 74.815 104.671 75.0524L104.718 78.233C104.718 78.4545 104.544 78.6444 104.322 78.6444H100.377C100.156 78.676 99.9655 78.4862 99.9655 78.2488L99.918 75.0682Z"
    fill="#703D92"
  />
  <path
    d="M91.9195 85.5758L92.173 102.08L96.9574 103.963L96.6723 85.5599H100.078L100.332 102.048L105.116 103.931L104.831 85.5283H108C110.614 85.4966 112.689 83.3129 112.657 80.6229L112.61 77.917L107.889 77.9486L107.936 80.6545L88.8143 80.7653C86.2003 80.7653 84.1249 82.9648 84.1566 85.639L84.2041 88.9937L88.9252 88.9621L88.8777 85.6074H91.9037L91.9195 85.5758Z"
    fill="#703D92"
  />
  <path
    fill-rule="evenodd"
    clip-rule="evenodd"
    d="M98.9709 65.399C86.3602 65.4781 76.2842 75.9219 76.4902 88.7234C76.6962 101.541 87.0731 111.858 99.6997 111.779C112.31 111.7 122.386 101.256 122.18 88.4544C121.974 75.6371 111.597 65.3199 98.9709 65.399ZM72.3394 88.7551C72.1018 73.6116 83.9996 61.269 98.9075 61.1898C113.815 61.1107 126.093 73.2951 126.331 88.4386C126.569 103.582 114.671 115.925 99.763 116.004C84.8551 116.099 72.5771 103.899 72.3394 88.7551Z"
    fill="#703D92"
  />
</svg>
