<svg width="128" height="128" viewBox="0 0 128 128" fill="none" xmlns="http://www.w3.org/2000/svg">
  <g clip-path="url(#clip0_11234_5758)">
    <path
      d="M115.38 30.8965V28.778C115.38 20.0768 108.301 13.001 99.5952 13.001H20.6715C11.9679 13.001 4.88672 20.0768 4.88672 28.778V99.7748C4.88672 108.476 11.9679 115.552 20.6715 115.552H107.488C116.193 115.552 123.272 108.476 123.272 99.7748V44.5551C123.272 38.7273 120.093 33.6275 115.38 30.8965Z"
      stroke="#703D92"
      stroke-width="9.56652"
    />
    <path
      d="M118.535 34.5838V36.7241C116.21 35.3772 110.377 33.5535 107.497 33.5535H24.708C22.5404 33.5535 20.7656 31.7693 20.7656 29.5902C20.7656 27.4112 22.5404 25.627 24.708 25.627H107.497C109.626 25.627 111.717 25.9056 113.688 26.4591C114.789 28.5994 118.535 32.0487 118.535 34.5838Z"
      fill="#703D92"
    />
    <path
      fill-rule="evenodd"
      clip-rule="evenodd"
      d="M80.6445 69.8252C80.6445 57.6375 90.8386 47.7266 103.375 47.7266H124.842V91.9239H103.375C90.8386 91.9239 80.6445 82.0129 80.6445 69.8252ZM101.26 79.2962C106.491 79.2962 110.731 75.056 110.731 69.8253C110.731 64.5947 106.491 60.3545 101.26 60.3545C96.0293 60.3545 91.7891 64.5947 91.7891 69.8253C91.7891 75.056 96.0293 79.2962 101.26 79.2962Z"
      fill="#703D92"
    />
    <path
      d="M35.8206 48.3515C35.8206 48.0058 36.1033 47.7256 36.452 47.7256H42.5555C42.9042 47.7256 43.1868 48.0058 43.1868 48.3515V53.1503C43.1868 53.496 42.9042 53.7763 42.5555 53.7763H36.452C36.1033 53.7763 35.8206 53.496 35.8206 53.1503V48.3515Z"
      fill="#703D92"
    />
    <path
      d="M48.4484 48.3515C48.4484 48.0058 48.7311 47.7256 49.0798 47.7256H55.1833C55.532 47.7256 55.8147 48.0058 55.8147 48.3515V53.1503C55.8147 53.496 55.532 53.7763 55.1833 53.7763H49.0798C48.7311 53.7763 48.4484 53.496 48.4484 53.1503V48.3515Z"
      fill="#703D92"
    />
    <path
      d="M35.8206 64.1526V91.9229L43.1868 89.1119V64.1526H48.4484V91.9229L55.8147 89.1119V64.1526H60.7091C64.7476 64.1526 68.0215 60.8727 68.0215 56.8268V52.7331H60.7091V56.8268H31.1367C27.0981 56.8268 23.8242 60.1067 23.8242 64.1526V69.216H31.1367V64.1526H35.8206Z"
      fill="#703D92"
    />
  </g>
  <defs>
    <clipPath id="clip0_11234_5758">
      <rect width="128" height="128" fill="white" />
    </clipPath>
  </defs>
</svg>
